<svg xmlns="http://www.w3.org/2000/svg" width="24.324" height="24.324" viewBox="0 0 24.324 24.324">
  <path id="icons-pinterest" d="M14.162,2A12.162,12.162,0,1,0,26.324,14.162,12.162,12.162,0,0,0,14.162,2Zm5.047,11.481a4.171,4.171,0,0,1-4,3.649,2.2,2.2,0,0,1-1.885-.936s-.462,1.715-.547,2.055a8.148,8.148,0,0,1-1.4,2.432.122.122,0,0,1-.195,0,8.513,8.513,0,0,1,0-2.846l1-4.074a2.943,2.943,0,0,1-.207-.645,3.381,3.381,0,0,1,0-.547c0-1.107.669-1.934,1.5-1.934a1.009,1.009,0,0,1,1.058,1.119,4.95,4.95,0,0,1-.3,1.192c-.146.45-.3.924-.413,1.362a1.216,1.216,0,0,0,1.216,1.447c1.143,0,1.995-1.095,2.311-2.59a6.458,6.458,0,0,0,.146-1.386,2.858,2.858,0,0,0-3.223-2.87,3.649,3.649,0,0,0-3.807,3.649,2.432,2.432,0,0,0,.1.693,2.08,2.08,0,0,0,.413.778c.146.158.17.219.109.414l-.158.608a.268.268,0,0,1-.389.182A2.505,2.505,0,0,1,9.09,13.493a4.232,4.232,0,0,1-.146-1.131c0-2.128,1.861-4.67,5.521-4.67a4.573,4.573,0,0,1,4.865,4.293A7.066,7.066,0,0,1,19.209,13.481Z" transform="translate(-2 -2)" fill="rgba(37,40,42,0.4)" fill-rule="evenodd"/>
</svg>
