<svg id="icons-twitter" xmlns="http://www.w3.org/2000/svg" width="24.324" height="24.324" viewBox="0 0 24.324 24.324">
  <circle id="Ellipse_309" data-name="Ellipse 309" cx="12.162" cy="12.162" r="12.162" fill="rgba(37,40,42,0.4)"/>
  <path id="Path_806" data-name="Path 806" d="M20.52,9.23a6.081,6.081,0,0,1-1.63.45,2.919,2.919,0,0,0,1.216-1.569,5.461,5.461,0,0,1-1.8.681,2.834,2.834,0,0,0-4.865,1.934,2.748,2.748,0,0,0,.073.645A7.99,7.99,0,0,1,7.677,8.416,2.858,2.858,0,0,0,8.553,12.2a2.87,2.87,0,0,1-1.277-.353h0a2.846,2.846,0,0,0,2.226,2.8,2.955,2.955,0,0,1-.742.1,3.977,3.977,0,0,1-.535,0A2.846,2.846,0,0,0,10.876,16.7a5.716,5.716,0,0,1-3.515,1.216,6.383,6.383,0,0,1-.681,0,8.039,8.039,0,0,0,12.429-6.871v-.365A5.594,5.594,0,0,0,20.52,9.23Zm0,0" transform="translate(-0.988 -0.717)" fill="#fff"/>
</svg>
