<svg id="icons-instagram" xmlns="http://www.w3.org/2000/svg" width="24.324" height="24.324" viewBox="0 0 24.324 24.324">
  <path id="Path_803" data-name="Path 803" d="M12.391,10.19a2.2,2.2,0,1,0,2.2,2.2,2.2,2.2,0,0,0-2.2-2.2Z" transform="translate(-0.23 -0.23)" fill="rgba(37,40,42,0.4)"/>
  <path id="Path_804" data-name="Path 804" d="M15.8,7.43H10.179A2.749,2.749,0,0,0,7.43,10.179V15.8a2.749,2.749,0,0,0,2.749,2.749H15.8A2.749,2.749,0,0,0,18.546,15.8V10.179A2.749,2.749,0,0,0,15.8,7.43Zm-2.809,9.206a3.649,3.649,0,1,1,3.649-3.649A3.649,3.649,0,0,1,12.988,16.636Zm3.649-6.312a.84.84,0,1,0,0-.049Z" transform="translate(-0.826 -0.826)" fill="rgba(37,40,42,0.4)"/>
  <path id="Path_805" data-name="Path 805" d="M14.162,2A12.162,12.162,0,1,0,26.324,14.162,12.162,12.162,0,0,0,14.162,2Zm6.957,14.971a4.147,4.147,0,0,1-4.147,4.147H11.352a4.147,4.147,0,0,1-4.147-4.147V11.352a4.147,4.147,0,0,1,4.147-4.147h5.619a4.147,4.147,0,0,1,4.147,4.147Z" transform="translate(-2 -2)" fill="rgba(37,40,42,0.4)"/>
</svg>
