<svg id="icon-youtube" xmlns="http://www.w3.org/2000/svg" width="24.324" height="24.324" viewBox="0 0 24.324 24.324">
  <path id="Path_801" data-name="Path 801" d="M14.162,2A12.162,12.162,0,1,0,26.324,14.162,12.2,12.2,0,0,0,14.162,2Zm6.811,11.8v.851c0,1.216-.122,2.311-.122,2.311a2.95,2.95,0,0,1-.608,1.459,1.407,1.407,0,0,1-1.216.608c-1.946.122-4.743.122-4.743.122s-3.527,0-4.621-.122A1.677,1.677,0,0,1,8.2,18.418a5.164,5.164,0,0,1-.608-1.459s-.122-1.095-.122-2.311V13.554c0-1.095.122-2.311.122-2.311A2.95,2.95,0,0,1,8.2,9.784,1.339,1.339,0,0,1,9.419,9.3c1.824-.122,4.743-.122,4.743-.122h0s2.919,0,4.743.122a1.591,1.591,0,0,1,1.338.608,5.164,5.164,0,0,1,.608,1.459s.122,1.216.122,2.311Z" transform="translate(-2 -2)" fill="rgba(37,40,42,0.4)" fill-rule="evenodd"/>
  <path id="Path_802" data-name="Path 802" d="M10.8,10.2v4.135l3.884-2L12.554,11.2Z" transform="translate(-0.157 -0.287)" fill="rgba(37,40,42,0.4)" fill-rule="evenodd"/>
</svg>
